<svg width="24" height="24" viewBox="0 0 24 24" fill="none" xmlns="http://www.w3.org/2000/svg">
<path d="M13.3884 20.1963C13.8936 20.1963 14.3178 20.6263 14.1745 21.124C13.8599 22.2165 13.0048 22.9998 11.9997 23C10.9944 23 10.1396 22.2165 9.82488 21.124C9.6816 20.6264 10.1049 20.1965 10.61 20.1963H13.3884Z" fill="#101012"/>
<path d="M11.9997 1C12.1913 1 12.3788 1.00564 12.5622 1.0166C15.082 1.16732 16.378 2.33122 17.3825 3.78418C18.3578 5.19494 18.6813 6.8246 18.6813 7.94629V11.3311C18.6813 12.3455 18.6929 12.6273 18.7741 12.875C18.7932 12.9332 18.8158 12.99 18.8405 13.0459C18.9456 13.284 19.1239 13.4982 19.7975 14.2402L19.8405 14.2881C20.3318 14.8292 20.7632 15.3043 21.0475 15.709C21.3219 16.0995 21.6653 16.7017 21.485 17.4141C21.4358 17.6087 21.3566 17.7941 21.2516 17.9639C20.8673 18.5853 20.2042 18.7386 19.7389 18.7988C19.257 18.8611 18.625 18.8604 17.905 18.8604H6.10711C5.3868 18.8604 4.75418 18.8612 4.27215 18.7988C3.80694 18.7386 3.14471 18.5851 2.76043 17.9639C2.65543 17.7941 2.57631 17.6087 2.52703 17.4141C2.3468 16.7017 2.69013 16.0995 2.96453 15.709C3.24888 15.3043 3.68026 14.8292 4.17156 14.2881L4.21453 14.2402C4.88813 13.4982 5.06648 13.284 5.17156 13.0459C5.19619 12.9901 5.21795 12.9331 5.23699 12.875C5.31821 12.6273 5.33074 12.3455 5.33074 11.3311V7.94629C5.33074 6.82458 5.65427 5.19496 6.62957 3.78418C7.63406 2.33122 8.91734 1.16732 11.4372 1.0166C11.6206 1.00564 11.8081 1 11.9997 1Z" fill="#101012"/>
</svg>
