<svg width="20" height="20" viewBox="0 0 20 20" fill="none" xmlns="http://www.w3.org/2000/svg">
<path fill-rule="evenodd" clip-rule="evenodd" d="M17.1353 7.00016C17.485 7.00016 17.7683 7.28361 17.7684 7.6333V13.5846C17.7682 15.7706 15.9961 17.543 13.8101 17.543H6.1888C4.00292 17.5428 2.23064 15.7705 2.23047 13.5846V7.6333C2.23057 7.2838 2.5141 7.00043 2.86361 7.00016H17.1353ZM7.96126 8.49268C6.92367 8.49268 6.25635 8.97282 5.99593 9.54655C5.9349 9.68489 5.90641 9.8029 5.90641 9.94124C5.90649 10.2382 6.08146 10.4377 6.42318 10.4377C6.6996 10.4376 6.84235 10.3358 6.97656 10.0592C7.16781 9.64421 7.46891 9.43669 7.96533 9.43669C8.55915 9.43683 8.87679 9.75011 8.87679 10.222C8.87668 10.7019 8.47771 11.0357 7.86361 11.0358H7.62354C7.3265 11.0358 7.1556 11.2148 7.1556 11.4712C7.15569 11.7356 7.32657 11.9106 7.62354 11.9106H7.87988C8.59171 11.9108 9.01107 12.2281 9.007 12.7977C9.00688 13.2858 8.59165 13.6357 7.98975 13.6359C7.37956 13.6359 7.06202 13.3916 6.85449 12.9808C6.73249 12.7571 6.57756 12.6595 6.33366 12.6593C5.99593 12.6593 5.79248 12.8587 5.79248 13.1761C5.79251 13.2981 5.821 13.4285 5.88607 13.5627C6.16286 14.1403 6.85063 14.6247 7.9694 14.6247C9.33221 14.6245 10.2561 13.9164 10.2562 12.8506C10.2562 12.041 9.69035 11.5283 8.81575 11.4468V11.4224C9.50725 11.2799 10.0404 10.7914 10.0405 10.047C10.0405 9.1072 9.20209 8.49281 7.96126 8.49268ZM13.0231 8.53337C12.7709 8.53337 12.5754 8.5701 12.2907 8.7653L11.127 9.57096C10.9357 9.70524 10.8625 9.84359 10.8625 10.0308C10.8626 10.2911 11.0456 10.4702 11.2938 10.4702C11.4197 10.4702 11.5055 10.4416 11.6193 10.3604L12.4779 9.76221H12.5023V13.9655C12.5024 14.3357 12.7506 14.5799 13.1126 14.5799C13.4745 14.5797 13.7188 14.3355 13.7189 13.9655V9.22103C13.7189 8.79798 13.4583 8.53353 13.0231 8.53337Z" fill="#101012"/>
<path d="M13.4756 0.833984C13.8206 0.834094 14.1004 1.11403 14.1006 1.45898V2.00342H14.6507C16.3727 2.00363 17.7684 3.39983 17.7684 5.12191C17.7681 5.47019 17.486 5.75246 17.1377 5.7526H2.86198C2.51377 5.75244 2.23077 5.47026 2.23047 5.12191C2.23047 3.3998 3.62689 2.00358 5.34896 2.00342H5.91536V1.45898C5.91555 1.11403 6.19539 0.834094 6.54036 0.833984C6.88543 0.833984 7.16518 1.11396 7.16536 1.45898V2.00342H12.8506V1.45898C12.8508 1.11396 13.1305 0.833984 13.4756 0.833984Z" fill="#101012"/>
</svg>
