<svg width="24" height="24" viewBox="0 0 24 24" fill="none" xmlns="http://www.w3.org/2000/svg">
<path fill-rule="evenodd" clip-rule="evenodd" d="M20.5625 8.40039C20.9822 8.40039 21.3221 8.74053 21.3223 9.16016V16.3018C21.3221 18.9249 19.1955 21.0518 16.5723 21.0518H7.42676C4.8037 21.0516 2.67697 18.9248 2.67676 16.3018V9.16016C2.67688 8.74076 3.01711 8.40072 3.43652 8.40039H20.5625ZM9.55371 10.1914C8.30859 10.1914 7.50781 10.7676 7.19531 11.4561C7.12208 11.6221 7.08789 11.7637 7.08789 11.9297C7.08799 12.286 7.29795 12.5254 7.70801 12.5254C8.03972 12.5253 8.21102 12.4032 8.37207 12.0713C8.60156 11.5732 8.96289 11.3242 9.55859 11.3242C10.2712 11.3244 10.6523 11.7003 10.6523 12.2666C10.6522 12.8425 10.1734 13.243 9.43652 13.2432H9.14844C8.79199 13.2432 8.58691 13.458 8.58691 13.7656C8.58702 14.0829 8.79209 14.293 9.14844 14.293H9.45605C10.3103 14.2931 10.8135 14.674 10.8086 15.3574C10.8085 15.9431 10.3102 16.3631 9.58789 16.3633C8.85566 16.3633 8.47461 16.0701 8.22559 15.5771C8.07918 15.3087 7.89327 15.1915 7.60059 15.1914C7.19531 15.1914 6.95117 15.4307 6.95117 15.8115C6.95121 15.9579 6.9854 16.1143 7.06348 16.2754C7.39563 16.9686 8.22096 17.5498 9.56348 17.5498C11.1988 17.5496 12.3075 16.6999 12.3076 15.4209C12.3076 14.4494 11.6286 13.8341 10.5791 13.7363V13.707C11.4089 13.536 12.0487 12.9499 12.0488 12.0566C12.0488 10.9288 11.0427 10.1916 9.55371 10.1914ZM15.6279 10.2402C15.3253 10.2402 15.0907 10.2843 14.749 10.5186L13.3525 11.4854C13.123 11.6465 13.0352 11.8125 13.0352 12.0371C13.0353 12.3495 13.255 12.5645 13.5527 12.5645C13.7038 12.5644 13.8068 12.5302 13.9434 12.4326L14.9736 11.7148H15.0029V16.7588C15.003 17.203 15.3009 17.4961 15.7354 17.4961C16.1696 17.4959 16.4628 17.2028 16.4629 16.7588V11.0654C16.4629 10.5578 16.1501 10.2404 15.6279 10.2402Z" fill="#101012"/>
<path d="M16.1709 1.00098C16.5849 1.00111 16.9207 1.33703 16.9209 1.75098V2.4043H17.5811C19.6475 2.40455 21.3223 4.07999 21.3223 6.14648C21.3219 6.56443 20.9834 6.90315 20.5654 6.90332H3.43457C3.01672 6.90312 2.67711 6.56451 2.67676 6.14648C2.67676 4.07996 4.35246 2.40449 6.41895 2.4043H7.09863V1.75098C7.09886 1.33703 7.43467 1.00111 7.84863 1.00098C8.26271 1.00098 8.59841 1.33695 8.59863 1.75098V2.4043H15.4209V1.75098C15.4211 1.33695 15.7568 1.00098 16.1709 1.00098Z" fill="#101012"/>
</svg>
