<svg width="24" height="24" viewBox="0 0 24 24" fill="none" xmlns="http://www.w3.org/2000/svg">
<path d="M11.6475 5.10352C13.8014 5.10352 15.5479 6.85097 15.5479 9.00488V14.9961C15.5476 17.1498 13.8012 18.8965 11.6475 18.8965H4.89746C2.74371 18.8965 0.997334 17.1498 0.99707 14.9961V9.00488C0.997072 6.85097 2.74355 5.10352 4.89746 5.10352H11.6475Z" fill="#007AFF"/>
<path d="M21.2588 6.93945C22.1277 6.70913 23.0133 7.36247 23.0137 8.29395V15.6865C23.0137 16.6162 22.1318 17.2698 21.2637 17.043L21.0898 16.9854L17.7139 15.626C16.9948 15.3363 16.5234 14.6385 16.5234 13.8633V10.1338C16.5235 9.36139 16.9917 8.66547 17.707 8.37402L21.085 6.99805L21.2588 6.93945Z" fill="#007AFF"/>
</svg>
