<svg width="24" height="24" viewBox="0 0 24 24" fill="none" xmlns="http://www.w3.org/2000/svg">
<path fill-rule="evenodd" clip-rule="evenodd" d="M12 1C17.7866 1 22.4775 5.69095 22.4775 11.4775C22.4775 15.4577 20.2579 18.9189 16.9893 20.6924C14.5666 22.1167 11.7449 22.9365 8.73145 22.9365C6.87457 22.9365 5.08976 22.6261 3.42676 22.0547C2.74231 21.8192 2.60385 20.9291 3 20.3232C3.35581 19.7792 3.62235 19.1713 3.77832 18.5205C3.84462 18.2438 3.76109 17.9565 3.59082 17.7285C2.28718 15.9828 1.52246 13.8257 1.52246 11.4775C1.52251 5.69095 6.21339 1 12 1ZM7.00879 10.5312C6.18036 10.5312 5.50879 11.2028 5.50879 12.0312C5.50879 12.8597 6.18036 13.5312 7.00879 13.5312C7.8371 13.5311 8.50879 12.8596 8.50879 12.0312C8.50879 11.2029 7.8371 10.5314 7.00879 10.5312ZM12 10.5312C11.1716 10.5312 10.5 11.2028 10.5 12.0312C10.5 12.8597 11.1716 13.5312 12 13.5312C12.8284 13.5312 13.5 12.8597 13.5 12.0312C13.5 11.2028 12.8284 10.5312 12 10.5312ZM17.0088 10.5312C16.1804 10.5312 15.5088 11.2028 15.5088 12.0312C15.5088 12.8597 16.1804 13.5312 17.0088 13.5312C17.8371 13.5311 18.5088 12.8596 18.5088 12.0312C18.5088 11.2029 17.8371 10.5314 17.0088 10.5312Z" fill="#101012"/>
</svg>
