<svg width="24" height="24" viewBox="0 0 24 24" fill="none" xmlns="http://www.w3.org/2000/svg">
<path d="M13.7107 5.26221C14.0621 4.91119 14.6318 4.91107 14.9831 5.26221C15.3343 5.61368 15.3344 6.18426 14.9831 6.53565L10.0144 11.5044C9.80612 11.7127 9.68802 11.8314 9.6091 11.9243C9.58537 11.9523 9.57124 11.9716 9.5632 11.9829C9.56151 11.9933 9.56158 12.0037 9.5632 12.0142C9.57119 12.0255 9.5851 12.0455 9.6091 12.0737C9.68803 12.1667 9.8062 12.2855 10.0144 12.4937L14.9831 17.4624L15.0446 17.5308C15.3328 17.8842 15.3123 18.4054 14.9831 18.7349C14.6538 19.0642 14.1325 19.0852 13.779 18.7974L13.7107 18.7349L8.74191 13.7671C8.55451 13.5797 8.3746 13.4008 8.23703 13.2388C8.09274 13.0688 7.94266 12.8582 7.85422 12.5864C7.73023 12.2048 7.73024 11.7932 7.85422 11.4116L7.93136 11.2192C8.01771 11.0373 8.12875 10.8868 8.23703 10.7593C8.37462 10.5972 8.55443 10.4184 8.74191 10.231L13.7107 5.26221Z" fill="#101012"/>
</svg>
