<svg width="24" height="24" viewBox="0 0 24 24" fill="none" xmlns="http://www.w3.org/2000/svg">
<path d="M7.11519 7.11657C7.46666 6.76519 8.0362 6.76516 8.38765 7.11657L12.0068 10.7357L15.6191 7.12341C15.9706 6.77202 16.5411 6.77196 16.8925 7.12341C17.2438 7.47487 17.2439 8.04544 16.8925 8.39685L13.2802 12.0092L16.8916 15.6205L16.9531 15.6888C17.2417 16.0423 17.2212 16.5643 16.8916 16.8939C16.5621 17.223 16.0408 17.2435 15.6875 16.9554L15.6191 16.8939L12.0068 13.2816L8.38863 16.9008L8.32027 16.9623C7.96684 17.2509 7.44482 17.2302 7.11519 16.9008C6.78557 16.5711 6.76503 16.0492 7.05367 15.6957L7.11519 15.6273L10.7334 12.0082L7.11519 8.39001C6.76372 8.03854 6.76372 7.46805 7.11519 7.11657Z" fill="#101012"/>
</svg>
