<svg width="24" height="24" viewBox="0 0 24 24" fill="none" xmlns="http://www.w3.org/2000/svg">
<path fill-rule="evenodd" clip-rule="evenodd" d="M12.2656 1C13.0953 1.00003 13.8934 1.31762 14.4971 1.88672L19.2324 6.35059C20.062 7.13823 20.5332 8.23104 20.5371 9.375L20.5371 16.79C20.5371 17.7193 20.5374 18.4637 20.4883 19.0654C20.4378 19.6833 20.3319 20.2186 20.0811 20.7109C19.6794 21.4992 19.0383 22.1403 18.25 22.542C17.7576 22.7928 17.2224 22.8987 16.6045 22.9492C16.0028 22.9983 15.2584 22.999 14.3291 22.999H10.6709C9.74156 22.999 7.99721 22.9983 7.39551 22.9492C6.77759 22.8987 6.24239 22.7928 5.75 22.542C4.96168 22.1403 4.32063 21.4992 3.91895 20.7109C3.66811 20.2186 3.56221 19.6833 3.51172 19.0654C3.46259 18.4637 3.46289 17.7193 3.46289 16.79L3.46289 7.20898C3.46288 6.27965 3.46258 5.5353 3.51172 4.93359C3.5622 4.31571 3.6681 3.78044 3.91895 3.28809C4.32063 2.49974 4.96167 1.85872 5.75 1.45703C6.24238 1.20615 6.77759 1.10029 7.39551 1.0498C7.99721 1.00066 9.74156 0.999993 10.6709 1H12.2656ZM11.4961 2.53906V6.69531C11.4961 7.14817 11.4956 7.53393 11.5215 7.85059C11.5487 8.18334 11.6089 8.50791 11.7666 8.81738C12.0043 9.28364 12.3833 9.66273 12.8496 9.90039C13.159 10.058 13.4828 10.1183 13.8154 10.1455C14.1322 10.1714 14.5186 10.1709 14.9717 10.1709H18.998V9.48828C18.998 9.17167 18.998 9.01335 18.9639 8.83105C18.9382 8.69383 18.8729 8.48916 18.8145 8.3623C18.7368 8.19377 18.6699 8.09885 18.5361 7.91016C18.4143 7.73831 18.2855 7.57384 18.1729 7.4668L13.9717 3.43164C13.6286 3.10212 13.4571 2.93703 13.2588 2.81934C13.0831 2.71505 12.8923 2.63832 12.6934 2.5918C12.4688 2.53932 12.2306 2.53906 11.7549 2.53906H11.4961Z" fill="#101012"/>
</svg>
