<svg width="24" height="24" viewBox="0 0 24 24" fill="none" xmlns="http://www.w3.org/2000/svg">
<path d="M12.9089 8.3186C14.945 8.31952 16.0008 8.33772 16.8162 8.75317C17.5688 9.13667 18.1807 9.74955 18.5642 10.5022C18.9999 11.3578 18.9998 12.4782 18.9998 14.718V15.9172C18.9998 18.1574 19.0002 19.2784 18.5642 20.134C18.1807 20.8866 17.5687 21.4986 16.8162 21.8821C15.9606 22.318 14.8403 22.3176 12.6003 22.3176H11.4001C9.1603 22.3176 8.03992 22.3178 7.18433 21.8821C6.43183 21.4987 5.81979 20.8865 5.43628 20.134C5.00031 19.2784 4.99976 18.1574 4.99976 15.9172V14.718C4.99976 12.478 5.00043 11.3578 5.43628 10.5022C5.81977 9.74955 6.43168 9.13667 7.18433 8.75317C8.00206 8.33671 9.06154 8.31942 11.1091 8.3186V14.8157L9.7605 13.467C9.40912 13.1157 8.83854 13.1159 8.48706 13.467C8.13588 13.8184 8.13604 14.3881 8.48706 14.7395L11.3728 17.6252C11.7242 17.9763 12.2939 17.9764 12.6453 17.6252L15.53 14.7395L15.5925 14.6711C15.8802 14.3177 15.8593 13.7963 15.53 13.467C15.2006 13.1378 14.6793 13.1174 14.3259 13.4055L14.2576 13.467L12.9089 14.8157V8.3186ZM12.0085 3.40942C12.4742 3.40955 12.8577 3.76361 12.9041 4.21704L12.9089 4.30981V8.3186C12.8085 8.31856 12.7057 8.31763 12.6003 8.31763H11.4001C11.301 8.31763 11.2039 8.31857 11.1091 8.3186V4.30981L11.113 4.21704C11.1594 3.76363 11.5429 3.40959 12.0085 3.40942Z" fill="#101012"/>
</svg>
