<svg width="24" height="24" viewBox="0 0 24 24" fill="none" xmlns="http://www.w3.org/2000/svg">
<path d="M15.2422 3.36621C17.106 3.36621 18.0384 3.36642 18.7734 3.6709C19.7535 4.07689 20.5325 4.85587 20.9385 5.83594C21.2427 6.57094 21.2422 7.50287 21.2422 9.36621V14.6338C21.2422 16.4971 21.2427 17.4291 20.9385 18.1641C20.5325 19.1441 19.7535 19.9231 18.7734 20.3291C18.0384 20.6336 17.106 20.6338 15.2422 20.6338C13.3787 20.6338 12.4469 20.6336 11.7119 20.3291C10.7318 19.9231 9.95284 19.1442 9.54688 18.1641C9.24259 17.4291 9.24219 16.4972 9.24219 14.6338V12.8994H14.8359L13.0752 14.6602C12.7237 15.0116 12.7238 15.5821 13.0752 15.9336C13.4266 16.2848 13.9962 16.2847 14.3477 15.9336L17.6455 12.6357C17.9963 12.2843 17.9966 11.7146 17.6455 11.3633L14.3477 8.06641L14.2793 8.00391C13.9259 7.71598 13.4046 7.73731 13.0752 8.06641C12.7458 8.39595 12.7253 8.91708 13.0137 9.27051L13.0752 9.33887L14.8359 11.0996H9.24219V9.36621C9.24219 7.50285 9.24259 6.57095 9.54688 5.83594C9.95284 4.85585 10.7318 4.07688 11.7119 3.6709C12.4469 3.36644 13.3787 3.36621 15.2422 3.36621ZM9.24219 12.8994H4.33008L4.2373 12.8945C3.78376 12.8483 3.42988 12.4657 3.42969 12C3.42988 11.5343 3.78375 11.1507 4.2373 11.1045L4.33008 11.0996H9.24219V12.8994Z" fill="#FF3B30"/>
</svg>
