<svg width="24" height="24" viewBox="0 0 24 24" fill="none" xmlns="http://www.w3.org/2000/svg">
<path fill-rule="evenodd" clip-rule="evenodd" d="M12.2656 0.99646C13.0953 0.996486 13.8934 1.31408 14.4971 1.88318L19.2324 6.34705C20.062 7.13468 20.5332 8.2275 20.5371 9.37146V16.7949C20.5371 17.7242 20.5374 18.4686 20.4883 19.0703C20.4378 19.6882 20.3319 20.2235 20.0811 20.7158C19.6794 21.5041 19.0383 22.1452 18.25 22.5469C17.7576 22.7978 17.2224 22.9036 16.6045 22.9541C16.0028 23.0033 15.2584 23.0039 14.3291 23.0039H10.6709C9.74156 23.0039 7.99721 23.0032 7.39551 22.9541C6.77759 22.9036 6.24238 22.7978 5.75 22.5469C4.96167 22.1452 4.32062 21.5042 3.91895 20.7158C3.6681 20.2235 3.5622 19.6882 3.51172 19.0703C3.46258 18.4686 3.46288 17.7243 3.46289 16.7949L3.46289 7.20544C3.46288 6.27612 3.46258 5.53176 3.51172 4.93005C3.5622 4.31217 3.6681 3.7769 3.91895 3.28455C4.32062 2.49621 4.96167 1.85518 5.75 1.45349C6.24238 1.20261 6.77759 1.09675 7.39551 1.04626C7.99721 0.997118 9.74156 0.996453 10.6709 0.99646H12.2656ZM6.80762 18.6729C6.35397 18.7191 6 19.1025 6 19.5684C6.0002 20.0341 6.35406 20.4177 6.80762 20.4639L6.89941 20.4688H14.4678C14.9647 20.4688 15.368 20.0652 15.3682 19.5684C15.3682 19.0713 14.9648 18.668 14.4678 18.668H6.89941L6.80762 18.6729ZM6.90039 15.165L6.80859 15.1699C6.35478 15.2159 6.00022 15.5995 6 16.0654C6 16.5315 6.35464 16.915 6.80859 16.9609L6.90039 16.9658H10.5449C11.0418 16.9656 11.4453 16.5624 11.4453 16.0654C11.4451 15.5687 11.0417 15.1652 10.5449 15.165H6.90039ZM11.4961 6.69177C11.4961 7.14463 11.4956 7.53039 11.5215 7.84705C11.5487 8.1798 11.6089 8.50437 11.7666 8.81384C12.0043 9.28009 12.3833 9.65919 12.8496 9.89685C13.159 10.0545 13.4828 10.1148 13.8154 10.142C14.1322 10.1678 14.5186 10.1674 14.9717 10.1674H18.998V9.48474C18.998 9.16813 18.998 9.00981 18.9639 8.82751C18.9382 8.69029 18.8729 8.48562 18.8145 8.35876C18.7368 8.19023 18.6699 8.0953 18.5361 7.90662C18.4143 7.73477 18.2855 7.5703 18.1729 7.46326L13.9717 3.4281C13.6286 3.09858 13.4571 2.93349 13.2588 2.8158C13.0831 2.71151 12.8923 2.63478 12.6934 2.58826C12.4688 2.53578 12.2306 2.53552 11.7549 2.53552H11.4961V6.69177Z" fill="#101012"/>
</svg>
