<svg width="24" height="24" viewBox="0 0 24 24" fill="none" xmlns="http://www.w3.org/2000/svg">
<path d="M11.1415 1.06982C11.8035 0.945708 12.4864 0.966925 13.1415 1.13232L13.3056 1.17724C14.1205 1.4242 14.8316 1.9436 15.5751 2.47314L15.704 2.56591L19.8036 5.48193L19.8974 5.54833L20.3349 5.86181C20.765 6.1763 21.1681 6.50303 21.4921 6.91454L21.6259 7.09325C21.9265 7.51558 22.1545 7.98553 22.3007 8.4829L22.3661 8.73583C22.4965 9.32743 22.4914 9.93964 22.4911 10.5737V16.6431L22.4852 17.7212C22.4824 17.8883 22.478 18.0495 22.4716 18.2036L22.4452 18.646C22.3969 19.2362 22.2881 19.8524 21.9823 20.4526C21.5915 21.2192 20.9969 21.8616 20.2675 22.3091L19.9462 22.4888C19.4961 22.718 19.0371 22.8368 18.5868 22.9018L18.1395 22.9517C18.0202 22.9614 17.8968 22.9685 17.7704 22.9741L17.3808 22.9868C17.2856 22.9888 17.1585 22.992 17.0458 22.9849C16.9515 22.9789 16.8255 22.9635 16.6874 22.9165L16.5468 22.8579C16.3291 22.751 16.1445 22.5843 16.0165 22.3794L15.9647 22.2886C15.8656 22.0968 15.8384 21.9138 15.828 21.7895C15.8186 21.6766 15.8192 21.5482 15.8192 21.4507V14.1186C15.8192 12.9589 14.8794 12.019 13.7196 12.019H10.2948C9.13512 12.0191 8.19526 12.9589 8.19521 14.1186V21.4507C8.19521 21.5481 8.19579 21.6766 8.18642 21.7895C8.17865 21.8827 8.16103 22.0091 8.11122 22.147L8.0497 22.2886C7.93819 22.504 7.76713 22.6854 7.55947 22.8091L7.46865 22.8579C7.2765 22.9524 7.09504 22.9768 6.96962 22.9849L6.63466 22.9868C6.49926 22.9841 6.36625 22.9798 6.2372 22.9741L5.86122 22.9517C5.34458 22.9094 4.80827 22.8214 4.28017 22.5952L4.05458 22.4888C3.17816 22.0422 2.46513 21.3297 2.01845 20.4536C1.78954 20.0042 1.67086 19.5448 1.60536 19.0942L1.55458 18.646C1.53165 18.3653 1.52103 18.0551 1.51552 17.7202L1.50966 16.6431V10.5737C1.5093 9.85046 1.50238 9.15292 1.69911 8.4829L1.7665 8.27099C1.93634 7.78107 2.18786 7.32223 2.50868 6.91454L2.67665 6.71532C3.08328 6.26605 3.58553 5.91558 4.10243 5.54833L4.15712 5.51025C4.1732 5.49905 4.18563 5.49012 4.19716 5.48193L8.29677 2.56591L8.42568 2.47314L9.0165 2.05712C9.6049 1.65285 10.196 1.29992 10.8593 1.13232L11.1415 1.06982Z" fill="white"/>
</svg>
