<svg width="24" height="24" viewBox="0 0 24 24" fill="none" xmlns="http://www.w3.org/2000/svg">
<path fill-rule="evenodd" clip-rule="evenodd" d="M12.0078 0.995117C14.8245 0.99542 17.1082 3.27995 17.1084 6.09668V8.93848C19.1269 9.1417 20.7018 10.847 20.7021 12.9189V17.1934L20.6973 17.3994C20.5933 19.4446 18.9534 21.0839 16.9082 21.1875L16.7021 21.1934H7.29688L7.09082 21.1875C5.04591 21.0836 3.40565 19.4443 3.30176 17.3994L3.29688 17.1934V12.9189C3.29719 10.842 4.88073 9.13393 6.90625 8.9375V6.09668C6.90643 3.27976 9.19085 0.995117 12.0078 0.995117ZM12.0049 13C11.1762 13 10.5039 13.6716 10.5039 14.5C10.5039 14.8973 10.6596 15.2573 10.9121 15.5254C10.9708 15.5877 11.0088 15.6683 11.0088 15.7539V16.501C11.0089 17.0531 11.4566 17.501 12.0088 17.501C12.5609 17.5008 13.0087 17.0531 13.0088 16.501V15.7441C13.0089 15.6595 13.0459 15.5796 13.1035 15.5176C13.3519 15.2503 13.5049 14.8936 13.5049 14.5C13.5049 13.6717 12.8334 13.0002 12.0049 13ZM12.0078 2.7959C10.185 2.7959 8.70721 4.27387 8.70703 6.09668V8.91895H15.3086V6.09668C15.3084 4.27406 13.8304 2.7962 12.0078 2.7959Z" fill="#101012"/>
</svg>
