<svg width="24" height="24" viewBox="0 0 24 24" fill="none" xmlns="http://www.w3.org/2000/svg">
<path d="M11.9997 13.9131C14.1458 13.9131 16.2327 14.4634 17.9353 15.4795C18.5522 15.8477 19.1064 16.2703 19.5886 16.7354C20.9564 18.0548 20.0616 20.1102 18.3132 20.8555C14.28 22.5746 9.72041 22.5746 5.68722 20.8555C3.93878 20.1102 3.04386 18.0548 4.41183 16.7354C4.8941 16.2703 5.4481 15.8478 6.06515 15.4795C7.76763 14.4634 9.8538 13.9131 11.9997 13.9131Z" fill="#101012"/>
<path d="M11.9997 1C15.0373 1 17.4997 3.46243 17.4997 6.5C17.4997 9.53757 15.0373 12 11.9997 12C8.96226 11.9999 6.49972 9.53749 6.49972 6.5C6.49972 3.46251 8.96226 1.00012 11.9997 1Z" fill="#101012"/>
</svg>
