<svg width="20" height="20" viewBox="0 0 20 20" fill="none" xmlns="http://www.w3.org/2000/svg">
<g clip-path="url(#clip0_0_28)">
<path fill-rule="evenodd" clip-rule="evenodd" d="M8.64665 0.833496C12.9575 0.833716 16.4518 4.32855 16.4518 8.63949L16.4421 9.04069C16.3544 10.7714 15.7015 12.3519 14.6663 13.6053L18.9486 17.8883C19.2415 18.1812 19.2415 18.6558 18.9486 18.9487C18.6557 19.2416 18.1811 19.2416 17.8882 18.9487L13.6043 14.6657C12.2557 15.7764 10.5292 16.4455 8.64583 16.4455L8.24463 16.4349C4.12028 16.2258 0.839897 12.8158 0.839844 8.63949L0.850423 8.23747C1.05286 4.24623 4.25336 1.04558 8.24463 0.843262L8.64665 0.833496ZM2.33968 8.63949C2.33974 12.1219 5.16345 14.9454 8.64583 14.9456C12.1284 14.9456 14.9519 12.1221 14.952 8.63949C14.952 5.15684 12.1285 2.33333 8.64583 2.33333C5.16342 2.33361 2.33968 5.15701 2.33968 8.63949Z" fill="#101012"/>
</g>
<defs>
<clipPath id="clip0_0_28">
<rect width="20" height="20" fill="white"/>
</clipPath>
</defs>
</svg>
