<svg width="24" height="24" viewBox="0 0 24 24" fill="none" xmlns="http://www.w3.org/2000/svg">
<path d="M12.9092 8.3186C14.9453 8.31952 16.001 8.33772 16.8164 8.75317C17.5691 9.13667 18.181 9.74955 18.5645 10.5022C19.0002 11.3578 19 12.4782 19 14.718V15.9172C19 18.1574 19.0004 19.2784 18.5645 20.134C18.181 20.8866 17.569 21.4986 16.8164 21.8821C15.9608 22.318 14.8405 22.3176 12.6006 22.3176H11.4004C9.16055 22.3176 8.04016 22.3178 7.18457 21.8821C6.43207 21.4987 5.82003 20.8865 5.43652 20.134C5.00055 19.2784 5 18.1574 5 15.9172V14.718C5 12.478 5.00067 11.3578 5.43652 10.5022C5.82002 9.74955 6.43192 9.13667 7.18457 8.75317C8.0023 8.33671 9.06178 8.31942 11.1094 8.3186V14.8157L9.76074 13.467C9.40937 13.1157 8.83878 13.1159 8.4873 13.467C8.13613 13.8184 8.13628 14.3881 8.4873 14.7395L11.373 17.6252C11.7245 17.9763 12.2941 17.9764 12.6455 17.6252L15.5303 14.7395L15.5928 14.6711C15.8805 14.3177 15.8595 13.7963 15.5303 13.467C15.2008 13.1378 14.6796 13.1174 14.3262 13.4055L14.2578 13.467L12.9092 14.8157V8.3186ZM12.0088 3.40942C12.4744 3.40955 12.8579 3.76361 12.9043 4.21704L12.9092 4.30981V8.3186C12.8087 8.31856 12.7059 8.31763 12.6006 8.31763H11.4004C11.3013 8.31763 11.2042 8.31857 11.1094 8.3186V4.30981L11.1133 4.21704C11.1597 3.76363 11.5432 3.40959 12.0088 3.40942Z" fill="#007AFF"/>
</svg>
