<svg width="48" height="48" viewBox="0 0 48 48" fill="none" xmlns="http://www.w3.org/2000/svg">
<path d="M0 16C0 7.16344 7.16344 0 16 0H32C40.8366 0 48 7.16344 48 16V32C48 40.8366 40.8366 48 32 48H16C7.16344 48 0 40.8366 0 32V16Z" fill="#007AFF"/>
<path d="M0 16C0 7.16344 7.16344 0 16 0H32C40.8366 0 48 7.16344 48 16V32C48 40.8366 40.8366 48 32 48H16C7.16344 48 0 40.8366 0 32V16Z" fill="url(#paint0_linear_40000121_22615)"/>
<path fill-rule="evenodd" clip-rule="evenodd" d="M24.0052 11.0891C29.8341 7.65055 35.4417 6.91512 38.2701 9.73386C41.0739 12.5477 40.3606 18.1704 36.9174 23.9998C40.3606 29.8316 41.0739 35.4518 38.2701 38.2681C35.4417 41.0844 29.8341 40.349 24.0052 36.9104C18.1763 40.349 12.5441 41.0844 9.74035 38.2681C6.91197 35.4518 7.64981 29.8316 11.0931 23.9998C7.64981 18.1704 6.91197 12.5477 9.74035 9.73386C12.5441 6.91512 18.1763 7.65055 24.0052 11.0891ZM12.8639 26.7078C11.9539 28.464 11.3389 30.1759 11.0438 31.7575C10.7241 33.6022 10.7733 35.2206 11.7817 36.2266C12.79 37.2326 14.4133 37.2843 16.2579 36.9473C17.832 36.6595 19.529 36.0397 21.2998 35.1272C19.7504 34.0056 18.2254 32.7044 16.7743 31.2385C15.2986 29.7725 13.9953 28.2476 12.8639 26.7078ZM35.122 26.7078C34.0153 28.2476 32.7118 29.7725 31.2361 31.2385C29.7851 32.7044 28.2601 34.0056 26.7106 35.1272C28.4568 36.0397 30.1785 36.6595 31.7525 36.9473C33.5971 37.2843 35.2204 37.2326 36.2288 36.2266C37.2372 35.2206 37.2862 33.6022 36.9419 31.7575C36.6714 30.1759 36.032 28.464 35.122 26.7078ZM24.0052 14.4884C22.2344 15.6739 20.4883 17.1251 18.8159 18.8026C17.1188 20.48 15.6676 22.2411 14.4871 23.9998C15.6676 25.7609 17.1188 27.5195 18.8159 29.197C20.4883 30.8769 22.2344 32.3281 24.0052 33.5112C25.7514 32.3281 27.5222 30.8769 29.1946 29.197C30.867 27.5195 32.3183 25.7609 33.5234 23.9998C32.3183 22.2411 30.867 20.48 29.1946 18.8026C27.5222 17.1251 25.7514 15.6739 24.0052 14.4884ZM24.0052 21.3262C25.6285 20.3595 27.2271 20.1554 28.0141 20.9449C28.8011 21.7344 28.5553 23.407 27.6207 24.9467C26.6369 26.5824 25.4563 27.6745 24.0052 28.5698C22.5541 27.6745 21.3736 26.5824 20.3898 24.9467C19.4552 23.407 19.2093 21.7344 19.9963 20.9449C20.7834 20.1554 22.3574 20.3595 24.0052 21.3262ZM35.122 21.2942C36.032 19.5355 36.6714 17.8236 36.9419 16.2445C37.2862 14.3998 37.2372 12.7789 36.2288 11.7729C35.2204 10.7669 33.5971 10.7153 31.7525 11.0523C30.1785 11.34 28.4568 11.9598 26.7106 12.8724C28.2601 13.994 29.7851 15.2976 31.2361 16.7611C32.7118 18.227 34.0153 19.7544 35.122 21.2942ZM21.2998 12.8724C19.529 11.9598 17.832 11.34 16.2579 11.0523C14.4133 10.7153 12.79 10.7669 11.7817 11.7729C10.7733 12.7789 10.7241 14.3998 11.0438 16.2445C11.3389 17.8236 11.9539 19.5355 12.8639 21.2942C13.9953 19.7544 15.2986 18.227 16.7743 16.7611C18.2254 15.2976 19.7504 13.994 21.2998 12.8724Z" fill="white"/>
<defs>
<linearGradient id="paint0_linear_40000121_22615" x1="22.1633" y1="-1.23751e-06" x2="22.1633" y2="48" gradientUnits="userSpaceOnUse">
<stop stop-color="white" stop-opacity="0.2"/>
<stop offset="1" stop-color="white" stop-opacity="0"/>
</linearGradient>
</defs>
</svg>
